<svg xmlns="http://www.w3.org/2000/svg" width="64" height="64" fill="none"><g clip-path="url(#a)"><path fill="url(#b)" d="M32 14c9.941 0 18 8.059 18 18s-8.059 18-18 18-18-8.059-18-18 8.059-18 18-18Z"/><path fill="url(#c)" d="M32 53a3 3 0 0 1 3 3v3a3 3 0 1 1-6 0v-3a3 3 0 0 1 3-3Zm19.092-6.15 2.121 2.12a3 3 0 0 1-4.242 4.243l-2.122-2.121a3 3 0 0 1 4.243-4.243Zm-38.184 0a3 3 0 0 1 4.492 3.96l-.25.282-2.12 2.121a3 3 0 0 1-4.493-3.96l.25-.282 2.12-2.122ZM8 29a3 3 0 0 1 .35 5.98L8 35H5a3 3 0 0 1-.35-5.98L5 29h3Zm51 0a3 3 0 1 1 0 6h-3a3 3 0 1 1 0-6h3ZM10.787 10.787a3 3 0 0 1 3.96-.25l.282.25 2.122 2.121a3 3 0 0 1-3.96 4.492l-.283-.25-2.121-2.12a3 3 0 0 1 0-4.243Zm42.426 0a3 3 0 0 1 0 4.242l-2.121 2.122a3 3 0 0 1-4.243-4.243l2.122-2.121a3 3 0 0 1 4.242 0ZM32 2a3 3 0 0 1 3 3v3a3 3 0 1 1-6 0V5a3 3 0 0 1 3-3Z"/></g><defs><radialGradient id="b" cx="0" cy="0" r="1" gradientTransform="rotate(43.02 -13.72 33.989) scale(41.7145)" gradientUnits="userSpaceOnUse"><stop offset=".194" stop-color="#FFE475"/><stop offset=".529" stop-color="#FFB029"/><stop offset=".78" stop-color="#FF9100"/></radialGradient><linearGradient id="c" x1="1.625" x2="62.375" y1="1.625" y2="62.375" gradientUnits="userSpaceOnUse"><stop offset=".167" stop-color="#FFE475"/><stop offset=".799" stop-color="#FFBF29"/></linearGradient><clipPath id="a"><path fill="#fff" d="M0 0h64v64H0z"/></clipPath></defs></svg>